<svg width="28" height="28" viewBox="0 0 28 28" fill="none" xmlns="http://www.w3.org/2000/svg">
<g clip-path="url(#clip0_4_369)">
<path d="M14.1098 24C11.6252 24 9.07924 24 6.32067 23.9951C5.47515 23.9951 4.71938 23.7309 4.13366 23.227C3.55266 22.728 3.17005 22.0186 3.03307 21.182C3 20.9814 3 20.7661 3 20.5558V20.5411C3 17.8601 3 15.1057 3 12.3611C3 11.0254 3.77467 10.228 5.06892 10.2231C5.42319 10.2231 5.77746 10.2231 6.13645 10.2231C6.41987 10.2231 6.708 10.2231 6.99142 10.2231C7.27483 10.2231 7.56297 10.2231 7.84639 10.2231H8.3707V9.68004C8.3707 9.318 8.3707 8.96086 8.3707 8.59883C8.3707 7.79159 8.36598 6.95499 8.37543 6.13796C8.38487 5.00783 9.15954 4.13699 10.2554 4.01468C10.3593 4.00489 10.468 4 10.5813 4H12.3054C14.0484 4 15.7962 4 17.5392 4C19.4286 4 21.0866 4 22.6028 4C23.7412 4 24.5773 4.67025 24.7804 5.74658C24.8135 5.90802 24.8135 6.07926 24.8135 6.26027V7.2681C24.8135 11.6272 24.8182 16.138 24.8135 20.5753C24.8135 22.591 23.4483 24 21.4928 24C19.1404 24 16.6511 24 14.1098 24ZM15.9993 22.9677C18.1438 22.9677 19.8773 22.9726 21.4692 22.9873H21.4928C22.1541 22.9873 22.7587 22.7378 23.1933 22.2828C23.6278 21.8278 23.8687 21.1967 23.864 20.4922C23.8498 17.1213 23.8498 13.6918 23.8546 10.3748C23.8546 9.0636 23.8546 7.70841 23.8546 6.3728C23.8546 5.43346 23.4531 5.01761 22.5556 5.01761H22.4281C21.403 5.01761 20.3827 5.01761 19.3577 5.01761C18.3327 5.01761 17.3124 5.01761 16.2874 5.01761C14.039 5.01761 12.3102 5.01272 10.6805 5.00294H10.6664C10.246 5.00294 9.91531 5.12524 9.68386 5.36497C9.4524 5.6047 9.32959 5.96184 9.33431 6.39237C9.34376 8.79452 9.34376 11.2407 9.34376 13.6037C9.34376 15.7319 9.34376 17.9335 9.34848 20.0959C9.3532 20.9618 9.30125 21.8816 8.66356 22.7231L8.48407 22.9628H9.16426C10.3026 22.9628 11.4646 22.9628 12.5841 22.9579C13.6989 22.9677 14.8562 22.9677 15.9993 22.9677ZM6.23565 11.226C5.85304 11.226 5.4657 11.226 5.0831 11.226C4.32732 11.226 3.97306 11.5978 3.97306 12.3953C3.97306 13.1145 3.97306 13.8483 3.97306 14.5528C3.97306 14.8464 3.97306 15.135 3.97306 15.4286C3.97306 15.9521 3.97306 16.4755 3.97306 16.999C3.97306 18.1879 3.96833 19.4207 3.97778 20.6341C3.98723 21.9501 4.94611 22.9775 6.16479 22.9775C6.37735 22.9775 6.59464 22.9432 6.80248 22.8796C7.75664 22.5861 8.37543 21.7006 8.37543 20.6145C8.38015 18.3151 8.37543 15.9765 8.37543 13.7162C8.37543 13.0264 8.37543 12.3317 8.37543 11.6419C8.37543 11.5881 8.3707 11.5391 8.3707 11.4804C8.3707 11.4511 8.36598 11.4168 8.36598 11.3777L8.36125 11.2456L8.23372 11.2407C8.19593 11.2407 8.15814 11.2358 8.12508 11.2358C8.05895 11.2309 7.99282 11.226 7.92669 11.226H7.7897C7.26539 11.226 6.75052 11.226 6.23565 11.226Z" fill="#DA2826"/>
<path d="M16.5944 12.8749C15.3096 12.8749 14.0248 12.8749 12.7683 12.8749C12.3385 12.8749 12.1543 12.6841 12.1543 12.2389C12.1496 10.9913 12.1496 9.75844 12.1543 8.5647C12.1543 8.1146 12.3291 7.93848 12.7731 7.93848C13.3163 7.93848 13.8595 7.93848 14.4027 7.93848C14.7664 7.93848 16.2307 7.93848 16.5944 7.93848C16.9582 7.93848 18.4225 7.93848 18.7862 7.93848C19.3294 7.93848 19.8726 7.93848 20.4158 7.93848C20.8551 7.93848 21.0299 8.1146 21.0299 8.56959C21.0346 9.81715 21.0346 11.0549 21.0299 12.2438C21.0299 12.689 20.8409 12.8749 20.4111 12.8749C19.1452 12.8749 17.8698 12.8749 16.5944 12.8749ZM13.1604 11.823H20.0379V8.96098H13.1604V11.823Z" fill="#DA2826"/>
<path d="M20.0663 15.8199C19.9671 15.8199 19.8679 15.8199 19.764 15.8199C19.6648 15.8199 19.5608 15.8199 19.4616 15.8199H16.5519C16.1929 15.8199 15.8292 15.8199 15.4702 15.8199C15.1112 15.8199 14.7475 15.8199 14.3885 15.8199C13.7461 15.8199 13.2265 15.8199 12.7447 15.815C12.518 15.815 12.3243 15.722 12.2251 15.5704C12.1401 15.4432 12.1307 15.2817 12.1921 15.1252C12.2771 14.9099 12.4377 14.8072 12.6975 14.7974C12.7967 14.7925 12.9053 14.7925 13.0423 14.7925C13.1132 14.7925 13.184 14.7925 13.2549 14.7925C13.3257 14.7925 13.3966 14.7925 13.4674 14.7925H20.2174C20.2458 14.7925 20.2694 14.7925 20.2977 14.7925C20.3213 14.7925 20.3497 14.7925 20.3733 14.7925C20.4205 14.7925 20.4536 14.7925 20.4867 14.7974C20.822 14.8169 21.044 15.0224 21.0393 15.3111C21.0346 15.6046 20.8126 15.8101 20.4819 15.815C20.3544 15.8199 20.2269 15.8199 20.0663 15.8199Z" fill="#DA2826"/>
<path d="M15.508 18.7603C14.431 18.7603 13.5619 18.7603 12.7731 18.7603C12.5275 18.7603 12.3243 18.6575 12.2204 18.4912C12.1401 18.3591 12.1354 18.1977 12.211 18.0411C12.3102 17.8258 12.4755 17.7427 12.7967 17.7427H12.8014C13.321 17.7427 13.8737 17.7427 14.5964 17.7427C14.9176 17.7427 15.2388 17.7427 15.56 17.7427C15.8812 17.7427 16.2024 17.7427 16.5236 17.7427H16.67C17.029 17.7427 17.388 17.7427 17.747 17.7427C18.106 17.7427 18.465 17.7427 18.824 17.7427C19.4569 17.7427 19.9765 17.7427 20.4536 17.7476C20.6851 17.7476 20.874 17.8405 20.9732 17.9971C21.0535 18.1243 21.0629 18.2808 20.9968 18.4423C20.9071 18.6624 20.7465 18.7603 20.4867 18.7603C19.9907 18.7603 19.49 18.7603 18.994 18.7603C18.9893 18.7603 16.0512 18.7603 15.508 18.7603Z" fill="#DA2826"/>
</g>
<defs>
<clipPath id="clip0_4_369">
<rect width="21.8182" height="20" fill="white" transform="translate(3 4)"/>
</clipPath>
</defs>
</svg>
